<?xml version="1.0" encoding="UTF-8" ?>
<!DOCTYPE svg PUBLIC "-//W3C//DTD SVG 1.1//EN" "http://www.w3.org/Graphics/SVG/1.1/DTD/svg11.dtd">
<svg width="225pt" height="225pt" viewBox="0 0 225 225" version="1.1" xmlns="http://www.w3.org/2000/svg">
<g id="#000000ff">
</g>
<g id="#ffffffff">
<path fill="#ffffff" opacity="1.00" d=" M 40.85 17.66 C 44.65 8.34 53.64 0.66 64.02 0.71 C 99.01 0.19 134.00 0.26 168.99 0.66 C 179.54 0.31 189.46 7.63 193.20 17.34 C 201.07 17.78 209.16 20.47 214.35 26.67 C 217.83 31.00 221.03 36.28 220.56 42.05 C 220.59 83.38 220.75 124.71 220.74 166.04 C 220.62 179.04 221.08 192.10 219.95 205.06 C 217.61 216.15 206.86 224.49 195.64 225.00 L 75.08 225.00 C 59.15 224.99 44.97 212.76 40.46 197.86 C 39.38 192.54 39.70 187.06 39.35 181.66 C 44.59 180.74 50.19 178.81 53.23 174.13 C 56.51 169.92 56.16 164.20 55.44 159.23 C 53.54 152.06 46.26 148.30 39.42 147.24 C 39.52 144.28 39.62 141.33 39.73 138.38 C 45.91 137.74 51.97 134.21 54.71 128.50 C 56.91 122.90 56.74 116.01 52.87 111.15 C 49.74 106.87 44.52 104.94 39.46 104.17 C 39.44 101.24 39.44 98.32 39.43 95.39 C 44.31 94.39 49.41 92.70 52.57 88.59 C 56.50 84.24 56.32 77.87 55.34 72.47 C 53.24 65.49 46.04 62.12 39.42 60.80 C 39.44 57.94 39.44 55.09 39.45 52.23 C 44.48 51.13 49.80 49.35 52.97 45.03 C 56.49 40.92 56.16 35.14 55.51 30.13 C 53.85 23.30 47.22 19.35 40.85 17.66 M 194.82 34.81 C 194.71 80.87 194.93 126.94 194.61 173.00 C 195.42 186.70 182.71 199.49 168.99 198.81 C 134.45 199.17 99.90 199.17 65.37 198.94 C 66.90 203.83 71.61 208.07 76.95 207.58 C 115.99 207.53 155.03 207.98 194.06 207.46 C 198.76 207.84 203.64 203.91 203.21 198.98 C 203.72 172.34 203.41 145.70 203.49 119.05 C 203.41 93.72 203.73 68.39 203.19 43.06 C 203.48 38.43 198.99 35.32 194.82 34.81 M 81.06 68.04 C 68.32 81.65 63.47 101.82 67.65 119.87 C 69.78 129.36 75.02 138.28 82.94 144.06 C 94.86 153.09 110.43 155.63 125.06 154.80 C 138.99 154.53 153.06 148.97 162.53 138.57 C 165.06 135.78 167.96 132.77 168.26 128.82 C 164.34 128.39 160.39 128.55 156.46 128.50 C 150.75 134.93 143.47 140.10 135.01 142.11 C 120.86 145.56 105.19 144.16 92.48 136.78 C 85.29 132.06 80.16 124.46 78.40 116.04 C 75.90 103.23 78.44 89.05 86.77 78.77 C 99.90 61.95 127.10 59.03 143.71 72.28 C 148.54 76.10 151.77 81.68 153.41 87.56 C 155.84 97.83 152.47 109.47 144.39 116.39 C 141.62 118.73 138.42 121.32 134.53 120.81 C 136.21 105.62 141.08 90.98 143.18 75.84 C 139.16 75.37 135.03 75.14 131.04 75.87 C 130.09 77.10 129.92 78.71 129.38 80.13 C 124.43 75.77 117.62 72.65 110.94 74.27 C 101.81 76.07 94.53 83.07 90.40 91.15 C 85.89 99.54 84.51 109.84 87.80 118.90 C 90.44 126.16 97.01 132.16 104.86 132.96 C 110.92 133.86 116.22 130.34 121.05 127.22 C 123.46 130.85 127.47 133.33 131.93 133.08 C 144.49 133.41 155.00 124.16 160.64 113.63 C 169.40 98.44 166.13 77.68 153.46 65.63 C 142.97 55.18 127.32 51.78 112.97 53.07 C 101.00 54.05 89.31 59.23 81.06 68.04 Z" />
<path fill="#ffffff" opacity="1.00" d=" M 11.02 29.91 C 13.87 27.82 17.33 26.51 20.89 26.45 C 26.93 26.22 33.00 26.17 39.04 26.51 C 43.45 26.57 48.00 30.36 47.62 35.03 C 47.92 38.41 45.57 41.38 42.61 42.69 C 35.44 43.77 28.14 43.25 20.95 43.78 C 19.77 44.83 18.47 46.16 18.76 47.89 C 18.89 53.64 22.83 58.79 27.98 61.12 C 21.15 60.65 13.35 59.94 8.48 54.51 C 2.84 47.45 3.71 35.52 11.02 29.91 Z" />
<path fill="#ffffff" opacity="1.00" d=" M 5.45 81.88 C 6.84 74.80 13.90 69.52 21.04 69.80 C 27.99 69.75 35.03 69.14 41.91 70.25 C 47.54 71.55 49.46 79.46 45.63 83.53 C 44.44 85.02 42.73 86.04 40.84 86.33 C 34.56 87.28 28.18 86.52 21.87 87.02 C 19.45 87.09 18.50 90.02 18.71 92.04 C 19.25 97.56 23.32 102.10 28.25 104.33 C 22.15 103.97 15.63 103.33 10.56 99.57 C 5.23 95.56 3.97 88.05 5.45 81.88 Z" />
<path fill="#ffffff" opacity="1.00" d=" M 112.38 85.55 C 115.05 84.85 118.13 84.88 120.42 86.60 C 124.16 89.02 125.50 93.73 125.46 97.97 C 125.35 105.32 122.41 112.78 117.00 117.85 C 114.04 120.39 110.04 122.85 106.01 121.49 C 102.81 120.06 100.31 117.00 99.65 113.54 C 98.40 105.23 100.87 96.54 106.09 89.98 C 107.74 88.00 109.88 86.30 112.38 85.55 Z" />
<path fill="#ffffff" opacity="1.00" d=" M 5.22 125.94 C 6.07 118.78 12.89 113.20 19.97 113.00 C 27.25 112.41 34.66 112.10 41.89 113.38 C 46.95 114.69 49.21 121.19 46.58 125.55 C 45.29 127.47 43.30 129.32 40.87 129.40 C 34.31 129.86 27.73 129.84 21.15 129.91 C 20.33 130.82 19.52 131.74 18.71 132.67 C 18.28 138.93 22.24 144.84 27.84 147.42 C 20.54 147.00 11.88 146.13 7.43 139.47 C 4.42 135.62 5.04 130.50 5.22 125.94 Z" />
<path fill="#ffffff" opacity="1.00" d=" M 9.73 160.72 C 12.39 157.96 16.07 156.23 19.91 156.06 C 26.63 155.68 33.38 155.82 40.11 156.15 C 44.11 156.37 47.63 159.90 47.59 163.96 C 48.00 168.26 44.45 172.41 40.19 172.78 C 33.45 173.40 26.65 173.10 19.92 173.84 C 16.36 180.41 22.00 187.85 28.04 190.45 C 22.33 190.46 16.37 189.58 11.39 186.66 C 3.13 180.95 2.73 167.59 9.73 160.72 Z" />
</g>
</svg>
